<svg id="图层_1" data-name="图层 1" xmlns="http://www.w3.org/2000/svg" width="120" height="120" viewBox="0 0 172 352.8"><defs><style>.cls-1{fill:#d7dae3;}.cls-2{fill:#eeeff3;}.cls-3{fill:#ffc95c;}</style></defs><path class="cls-1" d="M428.43,103.88h57a7.5,7.5,0,0,1,7.52,7.52v21.83h28.72a21.27,21.27,0,0,1,21.28,21.29V435.4a21.27,21.27,0,0,1-21.28,21.28H392.19a21.27,21.27,0,0,1-21.28-21.28V154.52a21.27,21.27,0,0,1,21.28-21.29h28.72V111.4a7.5,7.5,0,0,1,7.52-7.52Zm0,0" transform="translate(-370.91 -103.88)"/><path class="cls-2" d="M386.11,169.72A13.84,13.84,0,0,1,400,155.88H513.87a13.84,13.84,0,0,1,13.84,13.84V426a13.84,13.84,0,0,1-13.84,13.84H400A13.84,13.84,0,0,1,386.11,426Zm0,0" transform="translate(-370.91 -103.88)"/><path class="cls-3" d="M394.11,310.11a7.06,7.06,0,0,1,7-7H512.59a7.05,7.05,0,0,1,7,7v28.25a7.06,7.06,0,0,1-7,7H401.15a7.05,7.05,0,0,1-7-7Zm0,45a7.16,7.16,0,0,1,7.2-7.19h111.2a7.16,7.16,0,0,1,7.2,7.19v28.81a7.16,7.16,0,0,1-7.2,7.19H401.31a7.16,7.16,0,0,1-7.2-7.19Zm0,44.81a7.17,7.17,0,0,1,7.2-7.2h111.2a7.17,7.17,0,0,1,7.2,7.2v28.8a7.17,7.17,0,0,1-7.2,7.2H401.31a7.17,7.17,0,0,1-7.2-7.2Zm0,0" transform="translate(-370.91 -103.88)"/></svg>