<svg id="图层_1" data-name="图层 1" xmlns="http://www.w3.org/2000/svg" width="120" height="120" viewBox="0 0 172.72 352.8"><defs><style>.cls-1{fill:#d7dae3;}.cls-2{fill:#eeeff3;}.cls-3{fill:#64ba8c;}.cls-4{fill:none;stroke:#5b5b5b;stroke-miterlimit:10;stroke-width:10px;}.cls-5{fill:#5b5b5b;}</style></defs><path class="cls-1" d="M432,60.73h57.2a7.57,7.57,0,0,1,7.59,7.52V90.09H525.6A21.29,21.29,0,0,1,547,111.38V392.25a21.34,21.34,0,0,1-21.36,21.29h-130a21.29,21.29,0,0,1-21.35-21.29V111.38a21.34,21.34,0,0,1,21.35-21.29H424.4V68.25a7.63,7.63,0,0,1,7.6-7.52Zm0,0" transform="translate(-374.24 -60.73)"/><path class="cls-2" d="M389.44,126.66a13.93,13.93,0,0,1,13.92-13.93H518a13.93,13.93,0,0,1,13.92,13.93V382.89A13.93,13.93,0,0,1,518,396.81H403.36a13.93,13.93,0,0,1-13.92-13.92Zm0,0" transform="translate(-374.24 -60.73)"/><path class="cls-3" d="M397.43,131.93a7.17,7.17,0,0,1,7.2-7.2h112a7.18,7.18,0,0,1,7.21,7.2v28.8a7.18,7.18,0,0,1-7.21,7.2h-112a7.17,7.17,0,0,1-7.2-7.2Zm0,45.45a7,7,0,0,1,7-7H516.72a7.06,7.06,0,0,1,7,7v28.23a7.05,7.05,0,0,1-7,7H404.47a7.07,7.07,0,0,1-7-7Zm0,44.8a7.05,7.05,0,0,1,7-7.05H516.72a7.07,7.07,0,0,1,7,7.05v28.23a7,7,0,0,1-7,7H404.47a7.06,7.06,0,0,1-7-7Zm0,44.79a7.05,7.05,0,0,1,7-7H516.72a7.06,7.06,0,0,1,7,7v28.24a7.05,7.05,0,0,1-7,7H404.47a7.06,7.06,0,0,1-7-7Zm0,45a7.17,7.17,0,0,1,7.2-7.2h112a7.18,7.18,0,0,1,7.21,7.2v28.8a7.18,7.18,0,0,1-7.21,7.2h-112a7.17,7.17,0,0,1-7.2-7.2Zm0,44.8a7.16,7.16,0,0,1,7.2-7.19h112a7.17,7.17,0,0,1,7.21,7.19v28.81a7.17,7.17,0,0,1-7.21,7.19h-112a7.16,7.16,0,0,1-7.2-7.19Zm0,0" transform="translate(-374.24 -60.73)"/><path class="cls-1" d="M432,60.73h57.2a7.57,7.57,0,0,1,7.59,7.52V90.09H525.6A21.29,21.29,0,0,1,547,111.38V392.25a21.34,21.34,0,0,1-21.36,21.29h-130a21.29,21.29,0,0,1-21.35-21.29V111.38a21.34,21.34,0,0,1,21.35-21.29H424.4V68.25a7.63,7.63,0,0,1,7.6-7.52Zm0,0" transform="translate(-374.24 -60.73)"/><path class="cls-2" d="M389.44,126.66a13.93,13.93,0,0,1,13.92-13.93H518a13.93,13.93,0,0,1,13.92,13.93V382.89A13.93,13.93,0,0,1,518,396.81H403.36a13.93,13.93,0,0,1-13.92-13.92Zm0,0" transform="translate(-374.24 -60.73)"/><path class="cls-3" d="M397.43,131.93a7.17,7.17,0,0,1,7.2-7.2h112a7.18,7.18,0,0,1,7.21,7.2v28.8a7.18,7.18,0,0,1-7.21,7.2h-112a7.17,7.17,0,0,1-7.2-7.2Zm0,45.45a7,7,0,0,1,7-7H516.72a7.06,7.06,0,0,1,7,7v28.23a7.05,7.05,0,0,1-7,7H404.47a7.07,7.07,0,0,1-7-7Zm0,44.8a7.05,7.05,0,0,1,7-7.05H516.72a7.07,7.07,0,0,1,7,7.05v28.23a7,7,0,0,1-7,7H404.47a7.06,7.06,0,0,1-7-7Zm0,44.79a7.05,7.05,0,0,1,7-7H516.72a7.06,7.06,0,0,1,7,7v28.24a7.05,7.05,0,0,1-7,7H404.47a7.06,7.06,0,0,1-7-7Zm0,45a7.17,7.17,0,0,1,7.2-7.2h112a7.18,7.18,0,0,1,7.21,7.2v28.8a7.18,7.18,0,0,1-7.21,7.2h-112a7.17,7.17,0,0,1-7.2-7.2Zm0,44.8a7.16,7.16,0,0,1,7.2-7.19h112a7.17,7.17,0,0,1,7.21,7.19v28.81a7.17,7.17,0,0,1-7.21,7.19h-112a7.16,7.16,0,0,1-7.2-7.19Zm0,0" transform="translate(-374.24 -60.73)"/><path class="cls-1" d="M432,60.73h57.2a7.57,7.57,0,0,1,7.59,7.52V90.09H525.6A21.29,21.29,0,0,1,547,111.38V392.25a21.34,21.34,0,0,1-21.36,21.29h-130a21.29,21.29,0,0,1-21.35-21.29V111.38a21.34,21.34,0,0,1,21.35-21.29H424.4V68.25a7.63,7.63,0,0,1,7.6-7.52Zm0,0" transform="translate(-374.24 -60.73)"/><path class="cls-2" d="M389.44,126.66a13.93,13.93,0,0,1,13.92-13.93H518a13.93,13.93,0,0,1,13.92,13.93V382.89A13.93,13.93,0,0,1,518,396.81H403.36a13.93,13.93,0,0,1-13.92-13.92Zm0,0" transform="translate(-374.24 -60.73)"/><path class="cls-3" d="M397.43,177.38a7,7,0,0,1,7-7H516.72a7.06,7.06,0,0,1,7,7v28.23a7.05,7.05,0,0,1-7,7H404.47a7.07,7.07,0,0,1-7-7Zm0,44.8a7.05,7.05,0,0,1,7-7.05H516.72a7.07,7.07,0,0,1,7,7.05v28.23a7,7,0,0,1-7,7H404.47a7.06,7.06,0,0,1-7-7Zm0,44.79a7.05,7.05,0,0,1,7-7H516.72a7.06,7.06,0,0,1,7,7v28.24a7.05,7.05,0,0,1-7,7H404.47a7.06,7.06,0,0,1-7-7Zm0,45a7.17,7.17,0,0,1,7.2-7.2h112a7.18,7.18,0,0,1,7.21,7.2v28.8a7.18,7.18,0,0,1-7.21,7.2h-112a7.17,7.17,0,0,1-7.2-7.2Zm0,44.8a7.16,7.16,0,0,1,7.2-7.19h112a7.17,7.17,0,0,1,7.21,7.19v28.81a7.17,7.17,0,0,1-7.21,7.19h-112a7.16,7.16,0,0,1-7.2-7.19Zm0,0" transform="translate(-374.24 -60.73)"/><circle class="cls-4" cx="86.36" cy="189.21" r="53"/><path class="cls-5" d="M440.64,283.69a8.63,8.63,0,0,1-8.62-8.62V246.23a8.64,8.64,0,0,1,8.62-8.63H481.4a8.64,8.64,0,0,1,8.63,8.63v28.84a8.64,8.64,0,0,1-8.63,8.62Zm0-41.28a3.83,3.83,0,0,0-3.81,3.82v28.84a3.82,3.82,0,0,0,3.81,3.81H481.4a3.82,3.82,0,0,0,3.82-3.81V246.23a3.82,3.82,0,0,0-3.82-3.82Zm0,0" transform="translate(-374.24 -60.73)"/><path class="cls-5" d="M461,270.58a2.41,2.41,0,0,1-2.4-2.41v-8.35a2.41,2.41,0,0,1,4.81,0v8.35a2.42,2.42,0,0,1-2.41,2.41Zm12.39-31.12V231.1a12.35,12.35,0,0,0-24.69,0v8.36h-4.81V231.1a17.16,17.16,0,0,1,34.31,0v8.36Zm0,0" transform="translate(-374.24 -60.73)"/><path class="cls-5" d="M461,260.81a4.46,4.46,0,1,1,4.46-4.45,4.46,4.46,0,0,1-4.46,4.45Zm0,0" transform="translate(-374.24 -60.73)"/></svg>