<svg id="图层_1" data-name="图层 1" xmlns="http://www.w3.org/2000/svg" width="120" height="120" viewBox="0 0 172.72 352.8"><defs><style>.cls-1{fill:#d7dae3;}.cls-2{fill:#eeeff3;}.cls-3{fill:#fe5f69;}</style></defs><path class="cls-1" d="M434.31,103.88h57.2a7.57,7.57,0,0,1,7.6,7.52v21.83h28.8a21.29,21.29,0,0,1,21.36,21.29V435.4a21.34,21.34,0,0,1-21.36,21.28h-130a21.29,21.29,0,0,1-21.36-21.28V154.52a21.34,21.34,0,0,1,21.36-21.29h28.8V111.4a7.63,7.63,0,0,1,7.6-7.52Zm0,0" transform="translate(-376.55 -103.88)"/><path class="cls-2" d="M391.75,169.8a13.92,13.92,0,0,1,13.92-13.92H520.31a13.92,13.92,0,0,1,13.92,13.92V426A13.92,13.92,0,0,1,520.31,440H405.67A13.92,13.92,0,0,1,391.75,426Zm0,0" transform="translate(-376.55 -103.88)"/><path class="cls-3" d="M399.75,399.88a7.17,7.17,0,0,1,7.2-7.2H519a7.17,7.17,0,0,1,7.2,7.2v28.8a7.17,7.17,0,0,1-7.2,7.2H407a7.17,7.17,0,0,1-7.2-7.2Zm0,0" transform="translate(-376.55 -103.88)"/></svg>