<svg id="图层_1" data-name="图层 1" xmlns="http://www.w3.org/2000/svg" width="120" height="120" viewBox="0 0 172 352.8"><defs><style>.cls-1{fill:#d7dae3;}.cls-2{fill:#eeeff3;}.cls-3{fill:#ffc95c;}</style></defs><path class="cls-1" d="M420.43,121.88h57a7.5,7.5,0,0,1,7.52,7.52v21.83h28.72a21.27,21.27,0,0,1,21.28,21.29V453.4a21.27,21.27,0,0,1-21.28,21.28H384.19a21.27,21.27,0,0,1-21.28-21.28V172.52a21.27,21.27,0,0,1,21.28-21.29h28.72V129.4a7.5,7.5,0,0,1,7.52-7.52Zm0,0" transform="translate(-362.91 -121.88)"/><path class="cls-2" d="M378.11,187.72A13.84,13.84,0,0,1,392,173.88H505.87a13.84,13.84,0,0,1,13.84,13.84V444a13.84,13.84,0,0,1-13.84,13.84H392A13.84,13.84,0,0,1,378.11,444Zm0,0" transform="translate(-362.91 -121.88)"/><path class="cls-3" d="M386.11,283.32a7.06,7.06,0,0,1,7-7.05H504.59a7.06,7.06,0,0,1,7,7.05v28.24a7,7,0,0,1-7,7H393.15a7,7,0,0,1-7-7Zm0,44.79a7.06,7.06,0,0,1,7-7H504.59a7.05,7.05,0,0,1,7,7v28.25a7.06,7.06,0,0,1-7,7H393.15a7.05,7.05,0,0,1-7-7Zm0,45a7.16,7.16,0,0,1,7.2-7.19h111.2a7.16,7.16,0,0,1,7.2,7.19v28.81a7.16,7.16,0,0,1-7.2,7.19H393.31a7.16,7.16,0,0,1-7.2-7.19Zm0,44.81a7.17,7.17,0,0,1,7.2-7.2h111.2a7.17,7.17,0,0,1,7.2,7.2v28.8a7.17,7.17,0,0,1-7.2,7.2H393.31a7.17,7.17,0,0,1-7.2-7.2Zm0,0" transform="translate(-362.91 -121.88)"/></svg>