<svg id="图层_1" data-name="图层 1" xmlns="http://www.w3.org/2000/svg" width="120" height="120"  viewBox="0 0 172.72 352.8"><defs><style>.cls-1{fill:#d7dae3;}.cls-2{fill:#eeeff3;}.cls-3{fill:#64ba8c;}</style></defs><path class="cls-1" d="M430.31,104.88h57.2a7.57,7.57,0,0,1,7.6,7.52v21.83h28.8a21.29,21.29,0,0,1,21.36,21.29V436.4a21.34,21.34,0,0,1-21.36,21.28h-130a21.29,21.29,0,0,1-21.36-21.28V155.52a21.34,21.34,0,0,1,21.36-21.29h28.8V112.4a7.63,7.63,0,0,1,7.6-7.52Zm0,0" transform="translate(-372.55 -104.88)"/><path class="cls-2" d="M387.75,170.8a13.92,13.92,0,0,1,13.92-13.92H516.31a13.92,13.92,0,0,1,13.92,13.92V427A13.92,13.92,0,0,1,516.31,441H401.67A13.92,13.92,0,0,1,387.75,427Zm0,0" transform="translate(-372.55 -104.88)"/><path class="cls-3" d="M395.75,176.07a7.16,7.16,0,0,1,7.2-7.19H515a7.16,7.16,0,0,1,7.2,7.19v28.81a7.16,7.16,0,0,1-7.2,7.19H403a7.16,7.16,0,0,1-7.2-7.19Zm0,45.45a7,7,0,0,1,7-7H515a7.05,7.05,0,0,1,7,7v28.23a7.05,7.05,0,0,1-7,7.05H402.79a7.06,7.06,0,0,1-7-7.05Zm0,44.8a7.06,7.06,0,0,1,7-7.05H515a7.06,7.06,0,0,1,7,7.05v28.24a7,7,0,0,1-7,7H402.79a7,7,0,0,1-7-7Zm0,44.79a7.06,7.06,0,0,1,7-7H515a7.05,7.05,0,0,1,7,7v28.25a7.06,7.06,0,0,1-7,7H402.79a7.05,7.05,0,0,1-7-7Zm0,45a7.16,7.16,0,0,1,7.2-7.19H515a7.16,7.16,0,0,1,7.2,7.19v28.81a7.16,7.16,0,0,1-7.2,7.19H403a7.16,7.16,0,0,1-7.2-7.19Zm0,44.81a7.17,7.17,0,0,1,7.2-7.2H515a7.17,7.17,0,0,1,7.2,7.2v28.8a7.17,7.17,0,0,1-7.2,7.2H403a7.17,7.17,0,0,1-7.2-7.2Zm0,0" transform="translate(-372.55 -104.88)"/><path class="cls-1" d="M430.31,104.88h57.2a7.57,7.57,0,0,1,7.6,7.52v21.83h28.8a21.29,21.29,0,0,1,21.36,21.29V436.4a21.34,21.34,0,0,1-21.36,21.28h-130a21.29,21.29,0,0,1-21.36-21.28V155.52a21.34,21.34,0,0,1,21.36-21.29h28.8V112.4a7.63,7.63,0,0,1,7.6-7.52Zm0,0" transform="translate(-372.55 -104.88)"/><path class="cls-2" d="M387.75,170.8a13.92,13.92,0,0,1,13.92-13.92H516.31a13.92,13.92,0,0,1,13.92,13.92V427A13.92,13.92,0,0,1,516.31,441H401.67A13.92,13.92,0,0,1,387.75,427Zm0,0" transform="translate(-372.55 -104.88)"/><path class="cls-3" d="M395.75,176.07a7.16,7.16,0,0,1,7.2-7.19H515a7.16,7.16,0,0,1,7.2,7.19v28.81a7.16,7.16,0,0,1-7.2,7.19H403a7.16,7.16,0,0,1-7.2-7.19Zm0,45.45a7,7,0,0,1,7-7H515a7.05,7.05,0,0,1,7,7v28.23a7.05,7.05,0,0,1-7,7.05H402.79a7.06,7.06,0,0,1-7-7.05Zm0,44.8a7.06,7.06,0,0,1,7-7.05H515a7.06,7.06,0,0,1,7,7.05v28.24a7,7,0,0,1-7,7H402.79a7,7,0,0,1-7-7Zm0,44.79a7.06,7.06,0,0,1,7-7H515a7.05,7.05,0,0,1,7,7v28.25a7.06,7.06,0,0,1-7,7H402.79a7.05,7.05,0,0,1-7-7Zm0,45a7.16,7.16,0,0,1,7.2-7.19H515a7.16,7.16,0,0,1,7.2,7.19v28.81a7.16,7.16,0,0,1-7.2,7.19H403a7.16,7.16,0,0,1-7.2-7.19Zm0,44.81a7.17,7.17,0,0,1,7.2-7.2H515a7.17,7.17,0,0,1,7.2,7.2v28.8a7.17,7.17,0,0,1-7.2,7.2H403a7.17,7.17,0,0,1-7.2-7.2Zm0,0" transform="translate(-372.55 -104.88)"/><path class="cls-1" d="M430.31,104.88h57.2a7.57,7.57,0,0,1,7.6,7.52v21.83h28.8a21.29,21.29,0,0,1,21.36,21.29V436.4a21.34,21.34,0,0,1-21.36,21.28h-130a21.29,21.29,0,0,1-21.36-21.28V155.52a21.34,21.34,0,0,1,21.36-21.29h28.8V112.4a7.63,7.63,0,0,1,7.6-7.52Zm0,0" transform="translate(-372.55 -104.88)"/><path class="cls-2" d="M387.75,170.8a13.92,13.92,0,0,1,13.92-13.92H516.31a13.92,13.92,0,0,1,13.92,13.92V427A13.92,13.92,0,0,1,516.31,441H401.67A13.92,13.92,0,0,1,387.75,427Zm0,0" transform="translate(-372.55 -104.88)"/><path class="cls-3" d="M395.75,176.07a7.16,7.16,0,0,1,7.2-7.19H515a7.16,7.16,0,0,1,7.2,7.19v28.81a7.16,7.16,0,0,1-7.2,7.19H403a7.16,7.16,0,0,1-7.2-7.19Zm0,45.45a7,7,0,0,1,7-7H515a7.05,7.05,0,0,1,7,7v28.23a7.05,7.05,0,0,1-7,7.05H402.79a7.06,7.06,0,0,1-7-7.05Zm0,44.8a7.06,7.06,0,0,1,7-7.05H515a7.06,7.06,0,0,1,7,7.05v28.24a7,7,0,0,1-7,7H402.79a7,7,0,0,1-7-7Zm0,44.79a7.06,7.06,0,0,1,7-7H515a7.05,7.05,0,0,1,7,7v28.25a7.06,7.06,0,0,1-7,7H402.79a7.05,7.05,0,0,1-7-7Zm0,45a7.16,7.16,0,0,1,7.2-7.19H515a7.16,7.16,0,0,1,7.2,7.19v28.81a7.16,7.16,0,0,1-7.2,7.19H403a7.16,7.16,0,0,1-7.2-7.19Zm0,44.81a7.17,7.17,0,0,1,7.2-7.2H515a7.17,7.17,0,0,1,7.2,7.2v28.8a7.17,7.17,0,0,1-7.2,7.2H403a7.17,7.17,0,0,1-7.2-7.2Zm0,0" transform="translate(-372.55 -104.88)"/></svg>