<svg id="图层_1" data-name="图层 1" xmlns="http://www.w3.org/2000/svg" width="120" height="120" viewBox="0 0 172.72 352.8"><defs><style>.cls-1{fill:#d7dae3;}.cls-2{fill:#eeeff3;}.cls-3{fill:#fe5f69;}.cls-4{fill:#cc0014;}.cls-5{fill:none;stroke:#cc0014;stroke-miterlimit:10;stroke-width:10px;}</style></defs><path class="cls-1" d="M417.81,98.35H475a7.58,7.58,0,0,1,7.61,7.52v21.84h28.8A21.29,21.29,0,0,1,532.77,149V429.87a21.34,21.34,0,0,1-21.36,21.28h-130A21.3,21.3,0,0,1,360,429.87V149a21.34,21.34,0,0,1,21.37-21.28H410.2V105.87a7.65,7.65,0,0,1,7.61-7.52Zm0,0" transform="translate(-360.04 -98.35)"/><path class="cls-2" d="M375.25,164.27a13.92,13.92,0,0,1,13.91-13.92H503.8a13.92,13.92,0,0,1,13.92,13.92V420.51a13.92,13.92,0,0,1-13.92,13.92H389.16a13.92,13.92,0,0,1-13.91-13.92Zm0,0" transform="translate(-360.04 -98.35)"/><path class="cls-3" d="M383.25,394.35" transform="translate(-360.04 -98.35)"/><path class="cls-4" d="M438.5,262.7l3.5,3.38a172.52,172.52,0,0,1-21.63,14.7,22.68,22.68,0,0,0-3.56-3.85A118.42,118.42,0,0,0,438.5,262.7Zm-19.44,35.8h24.66V283H425.17v-4.5h42.19V283H448.75V298.5h24.71V303h-54.4Zm.36-43.26h25.75q-1.37-2.58-3.41-5.81l4.39-2.13a64.78,64.78,0,0,1,4.2,6.87l-2.16,1.07h25v11.49h-4.86v-7h-44v7h-4.86Zm34.31,7.52q12.45,7.41,21.63,14L472,280.84a255.09,255.09,0,0,0-21.09-14.64Z" transform="translate(-360.04 -98.35)"/><circle class="cls-5" cx="85.96" cy="176.65" r="53"/></svg>