<svg id="图层_1" data-name="图层 1" xmlns="http://www.w3.org/2000/svg" width="120" height="120" viewBox="0 0 172.72 352.8"><defs><style>.cls-1{fill:#d7dae3;}.cls-2{fill:#eeeff3;}.cls-3{fill:#fe5f69;}.cls-4{fill:none;}.cls-4,.cls-5{stroke:#cc0014;stroke-miterlimit:10;stroke-width:10px;}.cls-5{fill:#f40018;}</style></defs><path class="cls-1" d="M415.81,107.35H473a7.58,7.58,0,0,1,7.61,7.52v21.84h28.8A21.29,21.29,0,0,1,530.77,158V438.87a21.34,21.34,0,0,1-21.36,21.28h-130A21.3,21.3,0,0,1,358,438.87V158a21.34,21.34,0,0,1,21.37-21.28H408.2V114.87a7.65,7.65,0,0,1,7.61-7.52Zm0,0" transform="translate(-358.04 -107.35)"/><path class="cls-2" d="M375.25,164.27a13.92,13.92,0,0,1,13.91-13.92H503.8a13.92,13.92,0,0,1,13.92,13.92V420.51a13.92,13.92,0,0,1-13.92,13.92H389.16a13.92,13.92,0,0,1-13.91-13.92Zm0,0" transform="translate(-358.04 -107.35)"/><path class="cls-3" d="M383.25,394.35" transform="translate(-358.04 -107.35)"/><circle class="cls-4" cx="85.96" cy="176.65" r="53"/><line class="cls-5" x1="60.39" y1="203.01" x2="112.75" y2="150.65"/><line class="cls-5" x1="60.03" y1="150.84" x2="112.39" y2="203.2"/></svg>