<svg id="图层_1" data-name="图层 1" xmlns="http://www.w3.org/2000/svg" viewBox="0 0 39.46 39.46"><defs><style>.cls-1{fill:none;stroke:#5b5b5b;stroke-miterlimit:3.4;stroke-width:3.4px;}.cls-2{fill:#5b5b5b;}</style></defs><circle class="cls-1" cx="19.73" cy="19.73" r="18.03"/><path class="cls-2" d="M53.21,75.84a2.94,2.94,0,0,1-2.93-2.94V63.1a2.94,2.94,0,0,1,2.93-2.94H67.07A2.93,2.93,0,0,1,70,63.1v9.8a3,3,0,0,1-2.94,2.94Zm0-14a1.31,1.31,0,0,0-1.3,1.3v9.8a1.31,1.31,0,0,0,1.3,1.3H67.07a1.3,1.3,0,0,0,1.3-1.3V63.1a1.3,1.3,0,0,0-1.3-1.3H53.21Z" transform="translate(-40.27 -44.63)"/><path class="cls-2" d="M60.14,71.38a.82.82,0,0,1-.82-.82V67.72a.83.83,0,0,1,.87-.77.84.84,0,0,1,.77.77v2.84A.83.83,0,0,1,60.14,71.38Zm4.21-10.59V58A4.2,4.2,0,0,0,56,58v2.84H54.32V58A5.84,5.84,0,0,1,66,58v2.84Z" transform="translate(-40.27 -44.63)"/><path class="cls-2" d="M60.14,68.05a1.52,1.52,0,1,1,1.51-1.51h0A1.51,1.51,0,0,1,60.14,68.05Z" transform="translate(-40.27 -44.63)"/></svg>