<svg id="图层_1" data-name="图层 1" xmlns="http://www.w3.org/2000/svg" width="120" height="120" viewBox="0 0 172.72 352.8"><defs><style>.cls-1{fill:#d7dae3;}.cls-2{fill:#eeeff3;}.cls-3{fill:#fe5f69;}.cls-4{fill:none;stroke:#a8a8a8;stroke-miterlimit:10;stroke-width:10px;}.cls-5{fill:#a8a8a8;}</style></defs><path class="cls-1" d="M415.81,107.35H473a7.58,7.58,0,0,1,7.61,7.52v21.84h28.8A21.29,21.29,0,0,1,530.77,158V438.87a21.34,21.34,0,0,1-21.36,21.28h-130A21.3,21.3,0,0,1,358,438.87V158a21.34,21.34,0,0,1,21.37-21.28H408.2V114.87a7.65,7.65,0,0,1,7.61-7.52Zm0,0" transform="translate(-358.04 -107.35)"/><path class="cls-2" d="M375.25,164.27a13.92,13.92,0,0,1,13.91-13.92H503.8a13.92,13.92,0,0,1,13.92,13.92V420.51a13.92,13.92,0,0,1-13.92,13.92H389.16a13.92,13.92,0,0,1-13.91-13.92Zm0,0" transform="translate(-358.04 -107.35)"/><path class="cls-3" d="M383.25,394.35" transform="translate(-358.04 -107.35)"/><circle class="cls-4" cx="85.96" cy="176.65" r="53"/><path class="cls-5" d="M443.92,316.78q-5.07-.31-5.39-5.07.32-4.44,5.39-4.76,4.77.32,5.08,4.76Q448.69,316.47,443.92,316.78ZM449,255.55v2.86l-4.12,40.92h-1l-5.07-40.6v-2.86c0-3.17,1.58-4.86,4.76-5.07C447,251,448.79,252.6,449,255.55Z" transform="translate(-358.04 -107.35)"/></svg>