<svg id="图层_1" data-name="图层 1" xmlns="http://www.w3.org/2000/svg" xmlns:xlink="http://www.w3.org/1999/xlink" width="120" height="120"  viewBox="0 0 172.72 352.8"><defs><style>.cls-1,.cls-5{fill:none;}.cls-2{fill:#d7dae3;}.cls-3{fill:#eeeff3;}.cls-4{fill:#64ba8c;}.cls-5{stroke:#64ba8c;stroke-miterlimit:10;stroke-width:10px;}.cls-6{clip-path:url(#clip-path);}</style><clipPath id="clip-path" transform="translate(-374.24 -60.73)"><rect class="cls-1" x="431.63" y="214.05" width="57.37" height="80"/></clipPath></defs><path class="cls-2" d="M432,60.73h57.2a7.57,7.57,0,0,1,7.59,7.52V90.09H525.6A21.29,21.29,0,0,1,547,111.38V392.25a21.34,21.34,0,0,1-21.36,21.29h-130a21.29,21.29,0,0,1-21.35-21.29V111.38a21.34,21.34,0,0,1,21.35-21.29H424.4V68.25a7.63,7.63,0,0,1,7.6-7.52Zm0,0" transform="translate(-374.24 -60.73)"/><path class="cls-3" d="M389.44,126.66a13.93,13.93,0,0,1,13.92-13.93H518a13.93,13.93,0,0,1,13.92,13.93V382.89A13.93,13.93,0,0,1,518,396.81H403.36a13.93,13.93,0,0,1-13.92-13.92Zm0,0" transform="translate(-374.24 -60.73)"/><path class="cls-4" d="M397.43,131.93a7.17,7.17,0,0,1,7.2-7.2h112a7.18,7.18,0,0,1,7.21,7.2v28.8a7.18,7.18,0,0,1-7.21,7.2h-112a7.17,7.17,0,0,1-7.2-7.2Zm0,45.45a7,7,0,0,1,7-7H516.72a7.06,7.06,0,0,1,7,7v28.23a7.05,7.05,0,0,1-7,7H404.47a7.07,7.07,0,0,1-7-7Zm0,44.8a7.05,7.05,0,0,1,7-7.05H516.72a7.07,7.07,0,0,1,7,7.05v28.23a7,7,0,0,1-7,7H404.47a7.06,7.06,0,0,1-7-7Zm0,44.79a7.05,7.05,0,0,1,7-7H516.72a7.06,7.06,0,0,1,7,7v28.24a7.05,7.05,0,0,1-7,7H404.47a7.06,7.06,0,0,1-7-7Zm0,45a7.17,7.17,0,0,1,7.2-7.2h112a7.18,7.18,0,0,1,7.21,7.2v28.8a7.18,7.18,0,0,1-7.21,7.2h-112a7.17,7.17,0,0,1-7.2-7.2Zm0,44.8a7.16,7.16,0,0,1,7.2-7.19h112a7.17,7.17,0,0,1,7.21,7.19v28.81a7.17,7.17,0,0,1-7.21,7.19h-112a7.16,7.16,0,0,1-7.2-7.19Zm0,0" transform="translate(-374.24 -60.73)"/><path class="cls-2" d="M432,60.73h57.2a7.57,7.57,0,0,1,7.59,7.52V90.09H525.6A21.29,21.29,0,0,1,547,111.38V392.25a21.34,21.34,0,0,1-21.36,21.29h-130a21.29,21.29,0,0,1-21.35-21.29V111.38a21.34,21.34,0,0,1,21.35-21.29H424.4V68.25a7.63,7.63,0,0,1,7.6-7.52Zm0,0" transform="translate(-374.24 -60.73)"/><path class="cls-3" d="M389.44,126.66a13.93,13.93,0,0,1,13.92-13.93H518a13.93,13.93,0,0,1,13.92,13.93V382.89A13.93,13.93,0,0,1,518,396.81H403.36a13.93,13.93,0,0,1-13.92-13.92Zm0,0" transform="translate(-374.24 -60.73)"/><path class="cls-4" d="M397.43,131.93a7.17,7.17,0,0,1,7.2-7.2h112a7.18,7.18,0,0,1,7.21,7.2v28.8a7.18,7.18,0,0,1-7.21,7.2h-112a7.17,7.17,0,0,1-7.2-7.2Zm0,45.45a7,7,0,0,1,7-7H516.72a7.06,7.06,0,0,1,7,7v28.23a7.05,7.05,0,0,1-7,7H404.47a7.07,7.07,0,0,1-7-7Zm0,44.8a7.05,7.05,0,0,1,7-7.05H516.72a7.07,7.07,0,0,1,7,7.05v28.23a7,7,0,0,1-7,7H404.47a7.06,7.06,0,0,1-7-7Zm0,44.79a7.05,7.05,0,0,1,7-7H516.72a7.06,7.06,0,0,1,7,7v28.24a7.05,7.05,0,0,1-7,7H404.47a7.06,7.06,0,0,1-7-7Zm0,45a7.17,7.17,0,0,1,7.2-7.2h112a7.18,7.18,0,0,1,7.21,7.2v28.8a7.18,7.18,0,0,1-7.21,7.2h-112a7.17,7.17,0,0,1-7.2-7.2Zm0,44.8a7.16,7.16,0,0,1,7.2-7.19h112a7.17,7.17,0,0,1,7.21,7.19v28.81a7.17,7.17,0,0,1-7.21,7.19h-112a7.16,7.16,0,0,1-7.2-7.19Zm0,0" transform="translate(-374.24 -60.73)"/><path class="cls-2" d="M432,60.73h57.2a7.57,7.57,0,0,1,7.59,7.52V90.09H525.6A21.29,21.29,0,0,1,547,111.38V392.25a21.34,21.34,0,0,1-21.36,21.29h-130a21.29,21.29,0,0,1-21.35-21.29V111.38a21.34,21.34,0,0,1,21.35-21.29H424.4V68.25a7.63,7.63,0,0,1,7.6-7.52Zm0,0" transform="translate(-374.24 -60.73)"/><path class="cls-3" d="M389.44,126.66a13.93,13.93,0,0,1,13.92-13.93H518a13.93,13.93,0,0,1,13.92,13.93V382.89A13.93,13.93,0,0,1,518,396.81H403.36a13.93,13.93,0,0,1-13.92-13.92Zm0,0" transform="translate(-374.24 -60.73)"/><circle class="cls-5" cx="86.36" cy="189.21" r="53"/><g class="cls-6"><path class="cls-4" d="M486.17,259.53H471.76V236.91a2.74,2.74,0,0,0-5.48,0v25.36A2.74,2.74,0,0,0,469,265h11.12l-19.37,22.16-20-22.13H452a2.74,2.74,0,0,0,2.74-2.74V236.91a2.74,2.74,0,0,0-5.48,0v22.65H434.56a2.73,2.73,0,0,0-2,4.57l26.25,29a2.74,2.74,0,0,0,4.09,0l25.36-29a2.77,2.77,0,0,0,.43-2.94,2.74,2.74,0,0,0-2.49-1.6Zm0,0" transform="translate(-374.24 -60.73)"/></g><path class="cls-4" d="M486.26,225.66H434.4a2.74,2.74,0,1,0,0,5.48h51.86a2.74,2.74,0,1,0,0-5.48Zm0,0" transform="translate(-374.24 -60.73)"/><path class="cls-4" d="M434.4,219.63h51.86a2.74,2.74,0,1,0,0-5.47H434.4a2.74,2.74,0,1,0,0,5.47Zm0,0" transform="translate(-374.24 -60.73)"/></svg>