<svg id="图层_1" data-name="图层 1" xmlns="http://www.w3.org/2000/svg" width="120" height="120" viewBox="0 0 172.72 352.8"><defs><style>.cls-1{fill:#d7dae3;}.cls-2{fill:#eeeff3;}.cls-3{fill:#fe5f69;}.cls-4{fill:none;stroke:#5b5b5b;stroke-miterlimit:10;stroke-width:10px;}.cls-5{fill:#5b5b5b;}</style></defs><path class="cls-1" d="M415.81,107.35H473a7.58,7.58,0,0,1,7.61,7.52v21.84h28.8A21.29,21.29,0,0,1,530.77,158V438.87a21.34,21.34,0,0,1-21.36,21.28h-130A21.3,21.3,0,0,1,358,438.87V158a21.34,21.34,0,0,1,21.37-21.28H408.2V114.87a7.65,7.65,0,0,1,7.61-7.52Zm0,0" transform="translate(-358.04 -107.35)"/><path class="cls-2" d="M375.25,164.27a13.92,13.92,0,0,1,13.91-13.92H503.8a13.92,13.92,0,0,1,13.92,13.92V420.51a13.92,13.92,0,0,1-13.92,13.92H389.16a13.92,13.92,0,0,1-13.91-13.92Zm0,0" transform="translate(-358.04 -107.35)"/><path class="cls-3" d="M383.25,394.35" transform="translate(-358.04 -107.35)"/><circle class="cls-4" cx="85.96" cy="176.65" r="53"/><path class="cls-5" d="M424.05,317.75a8.64,8.64,0,0,1-8.63-8.63V280.28a8.64,8.64,0,0,1,8.63-8.62h40.76a8.63,8.63,0,0,1,8.62,8.62v28.84a8.64,8.64,0,0,1-8.62,8.63Zm0-41.28a3.82,3.82,0,0,0-3.81,3.81v28.84a3.83,3.83,0,0,0,3.81,3.82h40.77a3.82,3.82,0,0,0,3.81-3.82V280.28a3.82,3.82,0,0,0-3.81-3.81Zm0,0" transform="translate(-358.04 -107.35)"/><path class="cls-5" d="M444.43,304.63a2.4,2.4,0,0,1-2.41-2.4v-8.35a2.41,2.41,0,1,1,4.81,0v8.35a2.39,2.39,0,0,1-2.4,2.4Zm12.38-31.12v-8.35a12.35,12.35,0,1,0-24.69,0v8.35h-4.81v-8.35a17.16,17.16,0,1,1,34.31,0v8.35Zm0,0" transform="translate(-358.04 -107.35)"/><path class="cls-5" d="M444.41,294.87a4.46,4.46,0,1,1,4.45-4.46,4.45,4.45,0,0,1-4.45,4.46Zm0,0" transform="translate(-358.04 -107.35)"/></svg>