<svg id="图层_1" data-name="图层 1" xmlns="http://www.w3.org/2000/svg" width="120" height="120" viewBox="0 0 172.72 352.8"><defs><style>.cls-1{fill:#d7dae3;}.cls-2{fill:#eeeff3;}.cls-3{fill:#fe5f69;}.cls-4{fill:none;stroke:#cc0014;stroke-miterlimit:10;stroke-width:10px;}.cls-5{fill:#cc0014;}</style></defs><path class="cls-1" d="M415.81,107.35H473a7.58,7.58,0,0,1,7.61,7.52v21.84h28.8A21.29,21.29,0,0,1,530.77,158V438.87a21.34,21.34,0,0,1-21.36,21.28h-130A21.3,21.3,0,0,1,358,438.87V158a21.34,21.34,0,0,1,21.37-21.28H408.2V114.87a7.65,7.65,0,0,1,7.61-7.52Zm0,0" transform="translate(-358.04 -107.35)"/><path class="cls-2" d="M375.25,164.27a13.92,13.92,0,0,1,13.91-13.92H503.8a13.92,13.92,0,0,1,13.92,13.92V420.51a13.92,13.92,0,0,1-13.92,13.92H389.16a13.92,13.92,0,0,1-13.91-13.92Zm0,0" transform="translate(-358.04 -107.35)"/><path class="cls-3" d="M383.25,394.35" transform="translate(-358.04 -107.35)"/><circle class="cls-4" cx="85.96" cy="176.65" r="53"/><path class="cls-5" d="M461.08,268.08a17.33,17.33,0,0,1-2.1,8.42,21.88,21.88,0,0,1-5.61,6.67,17.51,17.51,0,0,0-4.91,5.61,11,11,0,0,0-1.41,3.86v2.45h-6.31v-3.51a12.87,12.87,0,0,1,1.58-6.13,25.23,25.23,0,0,1,5.43-6.49,13.12,13.12,0,0,0,4.91-10.18q0-4.54-2.1-6.84a7.74,7.74,0,0,0-6-2.28,8.3,8.3,0,0,0-6.49,3q-2.64,3-2.63,9.64h-8.07q.34-9.81,5.26-14.55A16.54,16.54,0,0,1,444.6,253q7.71,0,12.1,4.21A14.41,14.41,0,0,1,461.08,268.08Zm-13.33,45.6H440v-8.42h7.71Z" transform="translate(-358.04 -107.35)"/></svg>