<?xml version="1.0" encoding="UTF-8"?>
<svg width="726px" height="691px" viewBox="0 0 726 691" version="1.1" xmlns="http://www.w3.org/2000/svg" xmlns:xlink="http://www.w3.org/1999/xlink">
    <title>组合示例/功能区块示例/电脑组合07</title>
    <defs>
        <filter color-interpolation-filters="auto" id="filter-1">
            <feColorMatrix in="SourceGraphic" type="matrix" values="0 0 0 0 0.929412 0 0 0 0 0.929412 0 0 0 0 0.945098 0 0 0 1.000000 0"></feColorMatrix>
        </filter>
        <filter color-interpolation-filters="auto" id="filter-2">
            <feColorMatrix in="SourceGraphic" type="matrix" values="0 0 0 0 0.929412 0 0 0 0 0.929412 0 0 0 0 0.945098 0 0 0 1.000000 0"></feColorMatrix>
        </filter>
        <linearGradient x1="12.9905368%" y1="9.62348111%" x2="72.7688406%" y2="67.9479751%" id="linearGradient-3">
            <stop stop-color="#87A7FD" offset="0%"></stop>
            <stop stop-color="#3C72F2" offset="100%"></stop>
        </linearGradient>
        <circle id="path-4" cx="57.69889" cy="402.061024" r="13.691262"></circle>
        <filter x="-129.6%" y="-96.8%" width="366.6%" height="366.6%" filterUnits="objectBoundingBox" id="filter-5">
            <feOffset dx="1" dy="10" in="SourceAlpha" result="shadowOffsetOuter1"></feOffset>
            <feGaussianBlur stdDeviation="10.5" in="shadowOffsetOuter1" result="shadowBlurOuter1"></feGaussianBlur>
            <feColorMatrix values="0 0 0 0 0.337254902   0 0 0 0 0.517647059   0 0 0 0 0.964705882  0 0 0 0.401496941 0" type="matrix" in="shadowBlurOuter1"></feColorMatrix>
        </filter>
        <linearGradient x1="19.0164379%" y1="13.3399566%" x2="88.7637619%" y2="79.6437172%" id="linearGradient-6">
            <stop stop-color="#FFBDBD" offset="0%"></stop>
            <stop stop-color="#FF7A7A" offset="100%"></stop>
        </linearGradient>
        <circle id="path-7" cx="13.691262" cy="402.061024" r="13.691262"></circle>
        <filter x="-180.8%" y="-115.0%" width="461.5%" height="461.5%" filterUnits="objectBoundingBox" id="filter-8">
            <feOffset dx="0" dy="18" in="SourceAlpha" result="shadowOffsetOuter1"></feOffset>
            <feGaussianBlur stdDeviation="13.5" in="shadowOffsetOuter1" result="shadowBlurOuter1"></feGaussianBlur>
            <feColorMatrix values="0 0 0 0 1   0 0 0 0 0.737254902   0 0 0 0 0.737254902  0 0 0 0.504112831 0" type="matrix" in="shadowBlurOuter1"></feColorMatrix>
        </filter>
        <linearGradient x1="50%" y1="84.0591523%" x2="50%" y2="12.7399407%" id="linearGradient-9">
            <stop stop-color="#F0F3FD" offset="0%"></stop>
            <stop stop-color="#DFE4EE" offset="100%"></stop>
        </linearGradient>
        <linearGradient x1="50%" y1="0%" x2="50%" y2="100%" id="linearGradient-10">
            <stop stop-color="#DAE3F4" offset="0%"></stop>
            <stop stop-color="#F6F9FF" offset="100%"></stop>
        </linearGradient>
        <linearGradient x1="77.2659707%" y1="11.609859%" x2="24.8755531%" y2="90.1116565%" id="linearGradient-11">
            <stop stop-color="#97A7FA" offset="0%"></stop>
            <stop stop-color="#4E6CFF" offset="100%"></stop>
        </linearGradient>
        <circle id="path-12" cx="144" cy="144" r="64"></circle>
        <filter x="-53.9%" y="-39.8%" width="207.8%" height="207.8%" filterUnits="objectBoundingBox" id="filter-13">
            <feOffset dx="0" dy="18" in="SourceAlpha" result="shadowOffsetOuter1"></feOffset>
            <feGaussianBlur stdDeviation="20" in="shadowOffsetOuter1" result="shadowBlurOuter1"></feGaussianBlur>
            <feColorMatrix values="0 0 0 0 0.337254902   0 0 0 0 0.517647059   0 0 0 0 0.964705882  0 0 0 0.401496941 0" type="matrix" in="shadowBlurOuter1"></feColorMatrix>
        </filter>
        <circle id="path-14" cx="60" cy="60" r="60"></circle>
        <filter x="-57.5%" y="-42.5%" width="215.0%" height="215.0%" filterUnits="objectBoundingBox" id="filter-15">
            <feOffset dx="0" dy="18" in="SourceAlpha" result="shadowOffsetOuter1"></feOffset>
            <feGaussianBlur stdDeviation="20" in="shadowOffsetOuter1" result="shadowBlurOuter1"></feGaussianBlur>
            <feColorMatrix values="0 0 0 0 1   0 0 0 0 0.737254902   0 0 0 0 0.737254902  0 0 0 0.504112831 0" type="matrix" in="shadowBlurOuter1"></feColorMatrix>
        </filter>
    </defs>
    <g id="插画" stroke="none" stroke-width="1" fill="none" fill-rule="evenodd">
        <g id="组合示例/功能区块示例" transform="translate(-2655.000000, -3706.000000)">
            <g id="组合示例/功能区块示例/电脑组合07" transform="translate(2500.000000, 3536.000000)">
                <rect id="背景-" x="0" y="0" width="1000" height="1000"></rect>
                <g id="主图" transform="translate(155.000000, 170.000000)">
                    <g filter="url(#filter-1)" id="通用组建/点阵备份-6">
                        <g transform="translate(8.000000, 0.000000)" id="编组" fill="#EFEFF1">
                            <ellipse id="椭圆形" cx="10.2739726" cy="10.2576336" rx="10.2739726" ry="10.2576336"></ellipse>
                            <ellipse id="椭圆形备份" cx="70.5479452" cy="10.2576336" rx="10.2739726" ry="10.2576336"></ellipse>
                            <ellipse id="椭圆形备份-2" cx="129.452055" cy="10.2576336" rx="10.2739726" ry="10.2576336"></ellipse>
                            <ellipse id="椭圆形备份-3" cx="189.726027" cy="10.2576336" rx="10.2739726" ry="10.2576336"></ellipse>
                            <ellipse id="椭圆形备份-7" cx="10.2739726" cy="69.0680662" rx="10.2739726" ry="10.2576336"></ellipse>
                            <ellipse id="椭圆形备份-6" cx="70.5479452" cy="69.0680662" rx="10.2739726" ry="10.2576336"></ellipse>
                            <ellipse id="椭圆形备份-5" cx="129.452055" cy="69.0680662" rx="10.2739726" ry="10.2576336"></ellipse>
                            <ellipse id="椭圆形备份-4" cx="189.726027" cy="69.0680662" rx="10.2739726" ry="10.2576336"></ellipse>
                            <ellipse id="椭圆形备份-11" cx="10.2739726" cy="127.878499" rx="10.2739726" ry="10.2576336"></ellipse>
                            <ellipse id="椭圆形备份-10" cx="70.5479452" cy="127.878499" rx="10.2739726" ry="10.2576336"></ellipse>
                            <ellipse id="椭圆形备份-9" cx="129.452055" cy="127.878499" rx="10.2739726" ry="10.2576336"></ellipse>
                            <ellipse id="椭圆形备份-8" cx="189.726027" cy="127.878499" rx="10.2739726" ry="10.2576336"></ellipse>
                            <ellipse id="椭圆形备份-15" cx="10.2739726" cy="186.688931" rx="10.2739726" ry="10.2576336"></ellipse>
                            <ellipse id="椭圆形备份-14" cx="70.5479452" cy="186.688931" rx="10.2739726" ry="10.2576336"></ellipse>
                            <ellipse id="椭圆形备份-13" cx="129.452055" cy="186.688931" rx="10.2739726" ry="10.2576336"></ellipse>
                            <ellipse id="椭圆形备份-12" cx="189.726027" cy="186.688931" rx="10.2739726" ry="10.2576336"></ellipse>
                        </g>
                    </g>
                    <g id="编组-39备份-2" transform="translate(207.000000, 231.000000)">
                        <g filter="url(#filter-2)" id="编组-38">
                            <g transform="translate(44.007628, 0.000000)">
                                <path d="M300.5799,0.0169184881 L300.5799,0.0169184881 L425.644989,0.0169184881 C443.895145,0.0169184881 458.68982,18.1488388 458.68982,40.515696 L458.68982,363.518141 C458.68982,385.884998 443.895145,404.016918 425.644989,404.016918 L9.68981976,404.016918 L9.68981976,404.016918" id="路径" stroke="#979797" stroke-width="4.88973644" stroke-linecap="round" stroke-dasharray="10.75741989059638"></path>
                                <circle id="椭圆形备份-21" fill="#EFEFF1" cx="13.2022884" cy="402.549998" r="13.2022884"></circle>
                            </g>
                        </g>
                        <g id="椭圆形备份-23">
                            <use fill="black" fill-opacity="1" filter="url(#filter-5)" xlink:href="#path-4"></use>
                            <use fill="url(#linearGradient-3)" fill-rule="evenodd" xlink:href="#path-4"></use>
                        </g>
                        <g id="椭圆形备份-22">
                            <use fill="black" fill-opacity="1" filter="url(#filter-8)" xlink:href="#path-7"></use>
                            <use fill="url(#linearGradient-6)" fill-rule="evenodd" xlink:href="#path-7"></use>
                        </g>
                    </g>
                    <g id="编组备份-13" transform="translate(58.000000, 100.000000)">
                        <path d="M373.274305,469.140003 L360.650468,463.821419 L351.990566,400.500661 L236.668396,400.500661 L227.281712,463.562722 L215.987693,469.212974 C214.875185,469.769583 214.291148,471.018522 214.576951,472.22979 C214.862753,473.441058 215.943384,474.296717 217.187218,474.296717 L372.233881,474.296717 C373.510506,474.296717 374.610236,473.396447 374.862865,472.14433 C375.115493,470.892212 374.450983,469.635473 373.274305,469.140003 Z" id="路径" fill="url(#linearGradient-9)" fill-rule="nonzero"></path>
                        <path d="M578.209698,408.92521 L11.7152199,408.92521 C5.52661849,408.911301 0.517071848,403.887606 0.517071848,397.695341 L0.517071848,317.765078 L589.407837,317.765078 L589.407837,397.695332 C589.407837,403.887574 584.398276,408.91124 578.209698,408.92521 L578.209698,408.92521 Z" id="路径" fill="url(#linearGradient-10)" fill-rule="nonzero"></path>
                        <path d="M590,355.54204 L-9.83507834e-14,355.54204 L-9.83507834e-14,13.5373937 C0.00863403094,6.06429314 6.06119582,0.00837630923 13.5298938,-2.46021904e-14 L576.469968,-2.46021904e-14 C583.93869,0.00837140041 589.991294,6.06426876 590,13.5373937 L590,355.54204 Z" id="路径" fill="#253369"></path>
                        <path d="M554.761653,330.719308 L35.2383815,330.719308 C29.4804781,330.712997 24.8143041,326.0442 24.807839,320.282903 L24.807839,35.2591721 C24.8142559,29.4977507 29.4803548,24.8287423 35.2383815,24.8221258 L554.761653,24.8221258 C560.519678,24.8287471 565.185774,29.4977527 565.192196,35.2591721 L565.192196,320.282903 C565.185726,326.044198 560.519555,330.712992 554.761653,330.719308 Z" id="路径" fill="#FFFFFF" fill-rule="nonzero"></path>
                        <g id="编组-4备份-3" transform="translate(56.751361, 27.840290)" fill-rule="nonzero">
                            <g id="编组-2" transform="translate(0.000000, 78.166969)">
                                <rect id="矩形" fill="#E5E5E5" x="0" y="0" width="109.219601" height="10.707804" rx="5"></rect>
                                <rect id="矩形" fill="#E5E5E5" x="0" y="24.6279492" width="109.219601" height="10.707804" rx="5"></rect>
                                <rect id="矩形" fill="#E5E5E5" x="0" y="50.3266788" width="109.219601" height="10.707804" rx="5"></rect>
                                <rect id="矩形" fill="#E5E5E5" x="0" y="76.0254083" width="109.219601" height="10.707804" rx="5"></rect>
                                <rect id="矩形" fill="#6C63FF" x="25.6987296" y="109.219601" width="57.8221416" height="8.56624319" rx="4"></rect>
                            </g>
                            <g id="编组-3" transform="translate(161.687840, 66.388385)">
                                <rect id="矩形" fill="#E5E5E5" x="54.6098004" y="86.7332123" width="1.0707804" height="2.1415608"></rect>
                                <path d="M56.6331042,149.909256 L54.6098004,149.909256 L54.6098004,143.841408 L56.6331042,143.841408 L56.6331042,149.909256 Z M56.6331042,137.773831 L54.6098004,137.773831 L54.6098004,131.705992 L56.6331042,131.705992 L56.6331042,137.773831 Z M56.6331042,125.638164 L54.6098004,125.638164 L54.6098004,119.570557 L56.6331042,119.570557 L56.6331042,125.638164 Z M56.6331042,113.502729 L54.6098004,113.502729 L54.6098004,107.434891 L56.6331042,107.434891 L56.6331042,113.502729 Z M56.6331042,101.367294 L54.6098004,101.367294 L54.6098004,95.2994555 L56.6331042,95.2994555 L56.6331042,101.367294 Z" id="形状" fill="#E5E5E5"></path>
                                <rect id="矩形" fill="#E5E5E5" x="54.6098004" y="156.333938" width="1.0707804" height="2.1415608"></rect>
                                <rect id="矩形" fill="#E5E5E5" x="158.475499" y="86.7332123" width="1.0707804" height="2.1415608"></rect>
                                <path d="M160.498824,149.909256 L158.475499,149.909256 L158.475499,143.841408 L160.498824,143.841408 L160.498824,149.909256 Z M160.498824,137.773831 L158.475499,137.773831 L158.475499,131.705992 L160.498824,131.705992 L160.498824,137.773831 Z M160.498824,125.638164 L158.475499,125.638164 L158.475499,119.570557 L160.498824,119.570557 L160.498824,125.638164 Z M160.498824,113.502729 L158.475499,113.502729 L158.475499,107.434891 L160.498824,107.434891 L160.498824,113.502729 Z M160.498824,101.367294 L158.475499,101.367294 L158.475499,95.2994555 L160.498824,95.2994555 L160.498824,101.367294 Z" id="形状" fill="#E5E5E5"></path>
                                <rect id="矩形" fill="#E5E5E5" x="158.475499" y="156.333938" width="1.0707804" height="2.1415608"></rect>
                                <rect id="矩形" fill="#E5E5E5" x="209.872958" y="32.123412" width="1.0707804" height="2.1415608"></rect>
                                <path d="M212.967042,149.909256 L210.943739,149.909256 L210.943739,144.104506 L212.967042,144.104506 L212.967042,149.909256 Z M212.967042,138.299816 L210.943739,138.299816 L210.943739,132.494866 L212.967042,132.494866 L212.967042,138.299816 Z M212.967042,126.690146 L210.943739,126.690146 L210.943739,120.885426 L212.967042,120.885426 L212.967042,126.690146 Z M212.967042,115.080706 L210.943739,115.080706 L210.943739,109.275985 L212.967042,109.275985 L212.967042,115.080706 Z M212.967042,103.471265 L210.943739,103.471265 L210.943739,97.6663153 L212.967042,97.6663153 L212.967042,103.471265 Z M212.967042,91.8615953 L210.943739,91.8615953 L210.943739,86.0568752 L212.967042,86.0568752 L212.967042,91.8615953 Z M212.967042,80.2521452 L210.943739,80.2521452 L210.943739,74.4474251 L212.967042,74.4474251 L212.967042,80.2521452 Z M212.967042,68.6427051 L210.943739,68.6427051 L210.943739,62.837985 L212.967042,62.837985 L212.967042,68.6427051 Z M212.967042,57.0330349 L210.943739,57.0330349 L210.943739,51.2283149 L212.967042,51.2283149 L212.967042,57.0330349 Z M212.967042,45.4235948 L210.943739,45.4235948 L210.943739,39.6188748 L212.967042,39.6188748 L212.967042,45.4235948 Z" id="形状" fill="#E5E5E5"></path>
                                <rect id="矩形" fill="#E5E5E5" x="209.872958" y="156.333938" width="1.0707804" height="2.1415608"></rect>
                                <rect id="矩形" fill="#E5E5E5" x="262.341198" y="8.56624319" width="1.0707804" height="2.1415608"></rect>
                                <path d="M264.364523,150.980036 L262.341198,150.980036 L262.341198,145.160465 L264.364523,145.160465 L264.364523,150.980036 Z M264.364523,139.341125 L262.341198,139.341125 L262.341198,133.521564 L264.364523,133.521564 L264.364523,139.341125 Z M264.364523,127.702225 L262.341198,127.702225 L262.341198,121.882654 L264.364523,121.882654 L264.364523,127.702225 Z M264.364523,116.063314 L262.341198,116.063314 L262.341198,110.243743 L264.364523,110.243743 L264.364523,116.063314 Z M264.364523,104.424403 L262.341198,104.424403 L262.341198,98.6048319 L264.364523,98.6048319 L264.364523,104.424403 Z M264.364523,92.7855023 L262.341198,92.7855023 L262.341198,86.9659312 L264.364523,86.9659312 L264.364523,92.7855023 Z M264.364523,81.1465915 L262.341198,81.1465915 L262.341198,75.3270204 L264.364523,75.3270204 L264.364523,81.1465915 Z M264.364523,69.5076807 L262.341198,69.5076807 L262.341198,63.6881196 L264.364523,63.6881196 L264.364523,69.5076807 Z M264.364523,57.8687799 L262.341198,57.8687799 L262.341198,52.0492088 L264.364523,52.0492088 L264.364523,57.8687799 Z M264.364523,46.2298691 L262.341198,46.2298691 L262.341198,40.410298 L264.364523,40.410298 L264.364523,46.2298691 Z M264.364523,34.5909583 L262.341198,34.5909583 L262.341198,28.7713871 L264.364523,28.7713871 L264.364523,34.5909583 Z M264.364523,22.9520475 L262.341198,22.9520475 L262.341198,17.1324864 L264.364523,17.1324864 L264.364523,22.9520475 Z" id="形状" fill="#E5E5E5"></path>
                                <rect id="矩形" fill="#E5E5E5" x="262.341198" y="156.333938" width="1.0707804" height="2.1415608"></rect>
                                <rect id="矩形" fill="#E5E5E5" x="106.00726" y="49.2558984" width="1.0707804" height="2.1415608"></rect>
                                <path d="M108.030563,149.909256 L106.00726,149.909256 L106.00726,144.429493 L108.030563,144.429493 L108.030563,149.909256 Z M108.030563,138.949491 L106.00726,138.949491 L106.00726,133.469728 L108.030563,133.469728 L108.030563,138.949491 Z M108.030563,127.989725 L106.00726,127.989725 L106.00726,122.509963 L108.030563,122.509963 L108.030563,127.989725 Z M108.030563,117.02996 L106.00726,117.02996 L106.00726,111.550197 L108.030563,111.550197 L108.030563,117.02996 Z M108.030563,106.070195 L106.00726,106.070195 L106.00726,100.590432 L108.030563,100.590432 L108.030563,106.070195 Z M108.030563,95.1104298 L106.00726,95.1104298 L106.00726,89.6306568 L108.030563,89.6306568 L108.030563,95.1104298 Z M108.030563,84.1506645 L106.00726,84.1506645 L106.00726,78.6708617 L108.030563,78.6708617 L108.030563,84.1506645 Z M108.030563,73.1908993 L106.00726,73.1908993 L106.00726,67.7111264 L108.030563,67.7111264 L108.030563,73.1908993 Z M108.030563,62.2311341 L106.00726,62.2311341 L106.00726,56.7513612 L108.030563,56.7513612 L108.030563,62.2311341 Z" id="形状" fill="#E5E5E5"></path>
                                <rect id="矩形" fill="#E5E5E5" x="106.00726" y="156.333938" width="1.0707804" height="2.1415608"></rect>
                                <path d="M2.05319016,6.4246824 C2.62071982,6.4246824 3.13474443,6.65539605 3.50674037,7.02909332 C3.87697192,7.40101814 4.10638033,7.914713 4.10638033,8.48236564 L4.10638033,8.48236564 L4.10638033,157.572464 L315.968588,157.572464 C316.536118,157.572464 317.050143,157.803177 317.422139,158.176875 C317.79237,158.548799 318.021779,159.062494 318.021779,159.630147 C318.021779,160.197797 317.792372,160.711494 317.422141,161.083422 C317.050144,161.457124 316.536118,161.68784 315.968588,161.68784 L315.968588,161.68784 L2.05319016,161.68784 C1.48567253,161.68784 0.97164441,161.457127 0.599644268,161.083425 C0.229408532,160.711496 0,160.197798 0,159.630157 L0,159.630157 L0,8.48236564 C0,7.914713 0.229408408,7.40101814 0.599639964,7.02909332 C0.9716359,6.65539605 1.48566051,6.4246824 2.05319016,6.4246824 Z" id="路径" fill="#3F3D56"></path>
                                <polygon id="路径" fill="#3F3D56" points="263.2726 6.10036927 264.803615 9.91406166 212.284637 31.1481991 159.381881 89.245452 107.159902 49.9938524 55.5702979 88.7706841 53.1132508 85.4796184 107.159902 44.8563206 158.862258 83.7181094 209.882818 27.6882332"></polygon>
                                <circle id="椭圆形" fill="#6C63FF" cx="56.215971" cy="86.1978221" r="8.03085299"></circle>
                                <circle id="椭圆形" fill="#6C63FF" cx="108.684211" cy="47.6497278" r="8.03085299"></circle>
                                <circle id="椭圆形" fill="#6C63FF" cx="159.010889" cy="86.1978221" r="8.03085299"></circle>
                                <circle id="椭圆形" fill="#6C63FF" cx="211.479129" cy="29.446461" r="8.03085299"></circle>
                                <circle id="椭圆形" fill="#6C63FF" cx="263.947368" cy="8.03085299" r="8.03085299"></circle>
                            </g>
                            <rect id="矩形" fill="#E5E5E5" x="132.77677" y="0" width="2.1415608" height="299.818512"></rect>
                        </g>
                    </g>
                    <g id="编组-2备份-8" transform="translate(0.000000, 308.000000)">
                        <circle id="椭圆形" fill-opacity="0.1" fill="url(#linearGradient-11)" cx="143" cy="143" r="143"></circle>
                        <circle id="椭圆形备份-2" fill-opacity="0.1" fill="url(#linearGradient-11)" cx="143" cy="143" r="102"></circle>
                        <g id="椭圆形备份">
                            <use fill="black" fill-opacity="1" filter="url(#filter-13)" xlink:href="#path-12"></use>
                            <use fill="url(#linearGradient-3)" fill-rule="evenodd" xlink:href="#path-12"></use>
                        </g>
                        <g id="icon" transform="translate(107.000000, 104.000000)" fill-rule="nonzero">
                            <rect id="矩形" fill="#000000" opacity="0" x="0" y="0" width="76" height="76"></rect>
                            <path d="M30.5488589,47.9260957 L18.8093497,41.1703104 C17.6786641,40.5190753 16.2399474,40.917956 15.5958859,42.0612356 C14.9518245,43.2045151 15.3463113,44.6592567 16.4769969,45.3104919 L28.216506,52.0662773 C29.3471917,52.7175124 30.7859084,52.3186316 31.4299698,51.1753521 C32.0740313,50.0320726 31.6795444,48.577331 30.5488589,47.9260957 L30.5488589,47.9260957 Z M57.9151318,28.1589918 C59.046468,27.5090722 59.442537,26.0548638 58.7997767,24.9109265 C58.1570164,23.7669891 56.7188271,23.3665085 55.5874909,24.016428 L37.1972423,34.6003329 L18.8093497,24.0188102 C17.6786641,23.367575 16.2399473,23.7664558 15.5958859,24.9097354 C14.9518245,26.0530149 15.3463113,27.5077565 16.4769969,28.1589918 L35.1287517,38.8905901 L35.1287517,61.821193 C35.1287516,62.6722543 35.5777859,63.4586673 36.3067076,63.884198 C37.0356293,64.3097286 37.9336979,64.3097286 38.6626196,63.884198 C39.3915413,63.4586673 39.8405755,62.6722543 39.8405755,61.821193 L39.8405755,38.795304 C39.8405755,38.7214573 39.8052368,38.6571392 39.7981691,38.5832924 L57.9151318,28.1589918 Z M64.5470239,17.1915603 L40.9808369,3.24405559 C38.7836067,1.94352376 36.0632131,1.94352376 33.8659829,3.24405559 L10.3162872,17.1915603 C8.13917658,18.4851096 6.80325955,20.8485508 6.80597428,23.4018326 L6.80597428,53.0048455 C6.80597428,55.5942456 8.17711916,57.9835449 10.3940323,59.2579966 L33.9531516,72.8005353 C36.1097433,74.0416126 38.7535678,74.0416126 40.9101595,72.8005353 L64.4692788,59.2579966 C66.6910574,57.9780719 68.062003,55.5903973 68.0596915,53.0048455 L68.0596915,23.4018326 C68.0619171,20.8480639 66.7250402,18.4845109 64.5470239,17.1915603 Z M63.3478648,53.0048455 C63.3478648,53.8671848 62.8908178,54.665206 62.1510615,55.0892292 L38.5919422,68.6317679 C37.8735306,69.0461175 36.9921365,69.0461175 36.2737248,68.6317679 L12.7146055,55.0892292 C11.9740127,54.6625876 11.5170308,53.8666961 11.5178013,53.0048455 L11.5178013,23.4018326 C11.5178013,22.5490219 11.9630696,21.7605293 12.6886905,21.3317418 L36.2383862,7.38423717 C36.97022,6.95067379 37.8765997,6.95067379 38.6084336,7.38423717 L62.1769765,21.334124 C62.9025974,21.7605293 63.3478648,22.5490219 63.3478648,23.4018326 L63.3478648,53.0048455 L63.3478648,53.0048455 Z M57.0646476,33.6784398 L46.0696067,40.2388886 C44.5523994,41.1441067 43.3202574,43.1379686 43.3202574,44.6911322 L43.3202574,57.8239406 C43.3202574,59.3771043 44.5500435,59.9011779 46.0696067,58.9959598 L57.0646476,52.435511 C58.5818549,51.5302929 59.8139969,49.536431 59.8139969,47.9832674 L59.8139969,34.850459 C59.8139969,33.2972954 58.5842108,32.7732217 57.0646476,33.6784398 L57.0646476,33.6784398 Z" id="形状" fill="#FFFFFF"></path>
                        </g>
                    </g>
                    <g id="编组-12备份-7" transform="translate(568.000000, 42.000000)">
                        <g id="椭圆形">
                            <use fill="black" fill-opacity="1" filter="url(#filter-15)" xlink:href="#path-14"></use>
                            <use fill="url(#linearGradient-6)" fill-rule="evenodd" xlink:href="#path-14"></use>
                        </g>
                        <path d="M34.5928328,55.2248226 C35.4435413,55.5424433 36.3849914,55.4882341 37.1952546,55.0749736 C38.0055178,54.6617131 38.6129022,53.9259666 38.8742288,53.041172 C40.5985853,47.6367672 44.3457717,43.1458426 49.3002208,40.545838 C54.2403926,38.0654677 59.9438642,37.6873035 65.1572428,39.4944506 C68.9968115,40.9509616 72.3797195,43.4377623 74.948954,46.69241 L73.0064688,46.2475923 C72.1330707,46.0570741 71.2212547,46.2324361 70.4758278,46.7342894 C69.7304008,47.2361426 69.2138547,48.0224151 69.0422132,48.9164986 C68.6934764,50.8373488 69.8769281,52.7014035 71.737907,53.1624859 L81.2521202,55.4270124 C82.9630452,55.8480682 84.6997454,54.8382866 85.2163757,53.1220479 L87.5949291,44.6705113 C88.1745386,42.7970763 87.1919792,40.7925278 85.374946,40.1414582 C84.5237823,39.8359543 83.5875174,39.8958726 82.7804603,40.3074979 C81.9734032,40.7191232 81.3646525,41.4472129 81.09355,42.3251088 L80.9349798,43.3764962 C77.4700217,38.5781911 72.7008857,34.9225403 67.2186557,32.8626229 C60.3033072,30.4363349 52.7239794,30.9313778 46.1684589,34.237514 C39.5892159,37.6698467 34.6238092,43.6372748 32.3728497,50.8170834 C31.8665634,52.6526995 32.8350993,54.5757112 34.5928328,55.2248226 Z M82.8271218,65.784289 C82.0149242,66.1953731 81.4030952,66.9285353 81.1342411,67.8128885 C79.4151882,73.194941 75.688878,77.6677831 70.7632903,80.2615639 C65.8580055,82.7590899 60.1792935,83.1507014 54.989981,81.3493122 C51.165061,79.9090196 47.7974026,77.4295835 45.2499626,74.1782306 L47.182193,74.6213874 C48.0519725,74.8229051 48.9645774,74.6530672 49.7089362,74.1511546 C50.453295,73.649242 50.9649345,72.8587282 51.1255203,71.962447 C51.472416,70.0487694 50.2952121,68.1916752 48.4440577,67.7323146 L38.9800722,65.476244 C37.2752217,65.034972 35.5338046,66.049069 35.0367449,67.7726015 L32.3947156,76.1522924 C31.8399054,78.0169151 32.8100045,79.9991172 34.6029789,80.6644337 C35.4491963,80.9808684 36.3856762,80.9268616 37.1916619,80.5151443 C37.9976475,80.1034269 38.6018254,79.3704278 38.8617724,78.488937 L39.1378053,77.5623366 C42.591082,82.3360292 47.3328849,85.9763746 52.7817177,88.0369502 C59.6735958,90.4563669 67.2258754,89.9632531 73.760219,86.667193 C80.3303782,83.2479028 85.3071345,77.3087438 87.6012978,70.1495331 C88.1603224,68.2961643 87.209782,66.318613 85.4324678,65.6373919 C84.5809251,65.3201142 83.6393193,65.3731343 82.8271218,65.784289 Z" id="形状备份" fill="#FFFFFF" fill-rule="nonzero"></path>
                    </g>
                </g>
            </g>
        </g>
    </g>
</svg>